<svg xmlns="http://www.w3.org/2000/svg" xmlns:xlink="http://www.w3.org/1999/xlink" width="176.146" height="292" viewBox="0 0 176.146 292">
  <defs>
    <filter id="Mask" x="0.146" y="0" width="176" height="292" filterUnits="userSpaceOnUse">
      <feOffset input="SourceAlpha"/>
      <feGaussianBlur stdDeviation="10" result="blur"/>
      <feFlood flood-opacity="0.165"/>
      <feComposite operator="in" in2="blur"/>
      <feComposite in="SourceGraphic"/>
    </filter>
    <filter id="Mask-2" x="0" y="0" width="176.146" height="292" filterUnits="userSpaceOnUse">
      <feOffset input="SourceAlpha"/>
      <feGaussianBlur stdDeviation="10" result="blur-2"/>
      <feFlood flood-opacity="0.165"/>
      <feComposite operator="in" in2="blur-2"/>
    </filter>
    <clipPath id="clip-path">
      <g transform="matrix(1, 0, 0, 1, 0, 0)" filter="url(#Mask)">
        <path id="Mask-3" data-name="Mask" d="M116,0a116,116,0,0,1,0,232C116,231.387,116.076.283,116,0Z" fill="none"/>
      </g>
    </clipPath>
  </defs>
  <g id="Button_Back_Home" data-name="Button Back Home" transform="translate(30 30)">
    <g id="colors_genral-ui_prymary_blue" data-name="colors/genral-ui/prymary/blue" transform="translate(-115.854 0)">
      <g transform="matrix(1, 0, 0, 1, 85.85, -30)" filter="url(#Mask-2)">
        <path id="Mask-4" data-name="Mask" d="M116,0a116,116,0,0,1,0,232C115.763,232.237,115.853-.254,116,0Z" transform="translate(-85.85 30)" fill="#fff"/>
      </g>
      <g id="Mask_Group_3674" data-name="Mask Group 3674" clip-path="url(#clip-path)">
        <rect id="color_bg" width="116" height="232" transform="translate(116)" fill="#004f8b"/>
      </g>
    </g>
    <path id="ic_home" d="M33.6,42.08h0a1.391,1.391,0,0,1-1.078-.469,1.65,1.65,0,0,1-.515-1.03v-9c0-.041,0-.081,0-.122a1.278,1.278,0,0,0-.1-.629c-.088-.175-.5-.318-.825-.433a3.363,3.363,0,0,1-.338-.129A1.673,1.673,0,0,0,30,30.08H24a1.464,1.464,0,0,0-1.078.422c-.072.072-.166.149-.266.23-.3.245-.641.522-.641.848v9a1.4,1.4,0,0,1-.329,1.03,2.593,2.593,0,0,0-.166.208.5.5,0,0,1-.52.261H10.9a1.466,1.466,0,0,1-1.078-.422c-.05-.05-.109-.105-.172-.163-.285-.264-.675-.626-.675-.985v-15.4L26.25,10.955a1.595,1.595,0,0,1,1.5,0L45,25.04V40.509c0,.338-.342.635-.618.874-.083.072-.162.14-.226.2a1.469,1.469,0,0,1-1.078.421Zm16.931-16.5a1.019,1.019,0,0,1-.751-.282L27.75,7.111a1.595,1.595,0,0,0-1.5,0L4.218,25.3a.9.9,0,0,1-.656.282,1.157,1.157,0,0,1-.937-.469L.281,22.2A.9.9,0,0,1,0,21.549a1.278,1.278,0,0,1,.375-.938l23.719-19.5A4.612,4.612,0,0,1,27,.08a4.245,4.245,0,0,1,2.813,1.031l9.161,6.938V1.205c0-.041,0-.081,0-.121a.833.833,0,0,1,.182-.677A1.174,1.174,0,0,1,39.962,0h3.923a1.089,1.089,0,0,1,.8.328,1.089,1.089,0,0,1,.328.8L45,13.977l8.62,6.634a1.278,1.278,0,0,1,.375.938.9.9,0,0,1-.282.656l-2.344,2.906A1.078,1.078,0,0,1,50.531,25.58Z" transform="translate(24.74 94.96)" fill="#fff"/>
  </g>
</svg>
