<svg xmlns="http://www.w3.org/2000/svg" xmlns:xlink="http://www.w3.org/1999/xlink" width="176.146" height="292" viewBox="0 0 176.146 292">
  <defs>
    <filter id="Mask" x="0.146" y="0" width="176" height="292" filterUnits="userSpaceOnUse">
      <feOffset input="SourceAlpha"/>
      <feGaussianBlur stdDeviation="10" result="blur"/>
      <feFlood flood-opacity="0.165"/>
      <feComposite operator="in" in2="blur"/>
      <feComposite in="SourceGraphic"/>
    </filter>
    <filter id="Mask-2" x="0" y="0" width="176.146" height="292" filterUnits="userSpaceOnUse">
      <feOffset input="SourceAlpha"/>
      <feGaussianBlur stdDeviation="10" result="blur-2"/>
      <feFlood flood-opacity="0.165"/>
      <feComposite operator="in" in2="blur-2"/>
    </filter>
    <clipPath id="clip-path">
      <g transform="matrix(1, 0, 0, 1, 0, 0)" filter="url(#Mask)">
        <path id="Mask-3" data-name="Mask" d="M116,0a116,116,0,0,1,0,232C116,231.387,116.076.283,116,0Z" fill="none"/>
      </g>
    </clipPath>
    <clipPath id="clip-path-2">
      <rect id="Rectangle_4841" data-name="Rectangle 4841" width="44.824" height="50.443" fill="none"/>
    </clipPath>
  </defs>
  <g id="Button_Back_Home" data-name="Button Back Home" transform="translate(30 30)">
    <g id="colors_genral-ui_prymary_blue" data-name="colors/genral-ui/prymary/blue" transform="translate(-115.854 0)">
      <g transform="matrix(1, 0, 0, 1, 85.85, -30)" filter="url(#Mask-2)">
        <path id="Mask-4" data-name="Mask" d="M116,0a116,116,0,0,1,0,232C115.763,232.237,115.853-.254,116,0Z" transform="translate(-85.85 30)" fill="#fff"/>
      </g>
      <g id="Mask_Group_3674" data-name="Mask Group 3674" clip-path="url(#clip-path)">
        <rect id="color_bg" width="116" height="232" transform="translate(116)" fill="#004f8b"/>
      </g>
    </g>
    <g id="Group_7393" data-name="Group 7393" transform="translate(35.661 90.778)" clip-path="url(#clip-path-2)">
      <path id="Path_32373" data-name="Path 32373" d="M23.489,0a4.559,4.559,0,0,1,2.242,1.624c.65.749,1.334,1.461,2,2.2a3.462,3.462,0,0,1-.015,4.885q-4.87,5.345-9.749,10.68c-.113.124-.221.253-.412.474h.614q11.722,0,23.445-.006A2.855,2.855,0,0,1,44.5,21.67a4.867,4.867,0,0,1,.31,1.708c.04,1.245.005,2.492-.005,3.738-.018,2.132-1.228,3.458-3.18,3.465-2.68.009-5.36,0-8.039,0h-16c.184.215.3.354.415.484q4.851,5.3,9.7,10.592a3.172,3.172,0,0,1,.614,4,27.824,27.824,0,0,1-3.874,4.261,2.455,2.455,0,0,1-3.356-.341c-.114-.106-.224-.217-.33-.333Q10.9,38.462,1.057,27.677a3.427,3.427,0,0,1-.636-4.1A4.415,4.415,0,0,1,1.07,22.7q9.824-10.772,19.651-21.54A4.305,4.305,0,0,1,22.5,0Z" transform="translate(0)" fill="#fff"/>
    </g>
  </g>
</svg>
