<svg xmlns="http://www.w3.org/2000/svg" viewBox="0 0 128 128" width="128" height="128">
  <rect width="128" height="128" rx="24" fill="#004F8B"/>
  <g transform="translate(5.5, 36)" fill="#fff">
    <path d="M12.6 35.883a20.5 20.5 0 010-16.3L0 0l15.244 15.1.031-.044L23.019 22.8a9.868 9.868 0 00-.014 9.843h.014l-1.64 1.62-6.12 6.12-.025-.034L0 55.445z"/>
    <path d="M103.355 35.883a20.5 20.5 0 000-16.3L115.963 0 100.719 15.1l-.031-.044L92.944 22.8a9.868 9.868 0 01.014 9.843h-.014l1.64 1.62 6.12 6.12.025-.034 15.234 15.095z"/>
    <path d="M56.307 42.883a9.86 9.86 0 01-4.934-1.323L43.631 49.3a20.62 20.62 0 0025.53-.132l-7.725-7.725a9.858 9.858 0 01-5.128 1.435"/>
    <path d="M56.334 16.3a20.583 20.583 0 00-12.656 4.346L51.423 28.4a9.858 9.858 0 0110.014.116l7.725-7.725a20.594 20.594 0 00-12.833-4.478"/>
    <circle cx="76.157" cy="13.825" r="3.552" fill="#B7BB3A"/>
  </g>
</svg>
