<svg xmlns="http://www.w3.org/2000/svg" viewBox="0 0 80 100" width="80" height="100">
  <path d="M40 0C17.9 0 0 17.9 0 40c0 26.7 30 50 38.6 55.3a2.8 2.8 0 0 0 2.8 0C50 90.3 80 67 80 40 80 17.9 62.1 0 40 0z" fill="#1796d6"/>
  <circle cx="40" cy="40" r="30" fill="#d08a6a"/>
  <path d="M30 28c0-5 4-9 10-9s10 4 10 9v2c0 4-2 7-5 9l-5 3-5-3c-3-2-5-5-5-9v-2z" fill="#3a2a1c"/>
  <path d="M22 62c2-6 8-10 18-10s16 4 18 10c-5 5-11 8-18 8s-13-3-18-8z" fill="#5a3a22"/>
  <circle cx="34" cy="36" r="1.6" fill="#1a0e04"/>
  <circle cx="46" cy="36" r="1.6" fill="#1a0e04"/>
</svg>
