<svg xmlns="http://www.w3.org/2000/svg" viewBox="0 0 80 100" width="80" height="100">
  <path d="M40 0C17.9 0 0 17.9 0 40c0 26.7 30 50 38.6 55.3a2.8 2.8 0 0 0 2.8 0C50 90.3 80 67 80 40 80 17.9 62.1 0 40 0z" fill="#1796d6"/>
  <circle cx="40" cy="40" r="30" fill="#e4b08a"/>
  <path d="M22 40c0-13 8-22 18-22s18 9 18 22c0 5-1 9-3 12-2-5-6-9-10-11l-5 3-5-3c-4 2-8 6-10 11-2-3-3-7-3-12z" fill="#4a2818"/>
  <circle cx="34" cy="40" r="1.6" fill="#1a0e04"/>
  <circle cx="46" cy="40" r="1.6" fill="#1a0e04"/>
  <path d="M36 48c1 1 3 2 4 2s3-1 4-2" stroke="#8a3a20" stroke-width="1.5" fill="none" stroke-linecap="round"/>
</svg>
