<svg xmlns="http://www.w3.org/2000/svg" viewBox="0 0 80 100" width="80" height="100">
  <path d="M40 0C17.9 0 0 17.9 0 40c0 26.7 30 50 38.6 55.3a2.8 2.8 0 0 0 2.8 0C50 90.3 80 67 80 40 80 17.9 62.1 0 40 0z" fill="#1796d6"/>
  <clipPath id="fc"><circle cx="40" cy="40" r="30"/></clipPath>
  <g clip-path="url(#fc)">
    <rect x="10" y="10" width="60" height="60" fill="#ffffff"/>
    <rect x="10" y="14" width="60" height="4.5" fill="#b22234"/>
    <rect x="10" y="23" width="60" height="4.5" fill="#b22234"/>
    <rect x="10" y="32" width="60" height="4.5" fill="#b22234"/>
    <rect x="10" y="41" width="60" height="4.5" fill="#b22234"/>
    <rect x="10" y="50" width="60" height="4.5" fill="#b22234"/>
    <rect x="10" y="59" width="60" height="4.5" fill="#b22234"/>
    <rect x="10" y="10" width="26" height="26" fill="#3c3b6e"/>
    <g fill="#ffffff" font-family="Helvetica" font-size="5" font-weight="bold">
      <text x="14" y="17">★</text>
      <text x="21" y="17">★</text>
      <text x="28" y="17">★</text>
      <text x="14" y="24">★</text>
      <text x="21" y="24">★</text>
      <text x="28" y="24">★</text>
      <text x="14" y="31">★</text>
      <text x="21" y="31">★</text>
      <text x="28" y="31">★</text>
    </g>
  </g>
</svg>
