<svg id="Group_3567" data-name="Group 3567" xmlns="http://www.w3.org/2000/svg" width="695.485" height="128.537" viewBox="0 0 695.485 128.537">
  <path id="Path_2" data-name="Path 2" d="M266.636,59.289a30.28,30.28,0,0,0-12.488,2.693,15.757,15.757,0,0,0-7.906,7.733v36.32H230.889V46h14.093V58.831a27.361,27.361,0,0,1,3.781-5.557,29.076,29.076,0,0,1,4.7-4.3,21.742,21.742,0,0,1,5.1-2.807,14.07,14.07,0,0,1,4.984-.974h1.89a6.248,6.248,0,0,1,1.2.114Z" fill="#fff"/>
  <path id="Path_3" data-name="Path 3" d="M296.425,107.181q-9.28,0-14.093-5.958T277.52,83.579V46h15.353V80.256q0,13.865,9.968,13.864a15.765,15.765,0,0,0,8.65-2.693,19.351,19.351,0,0,0,6.817-8.192V46h15.354V88.391a5.393,5.393,0,0,0,.859,3.437,3.754,3.754,0,0,0,2.807,1.146v13.061a32.72,32.72,0,0,1-3.838.573c-1.032.075-1.968.115-2.808.115a11.054,11.054,0,0,1-6.7-1.891,7.438,7.438,0,0,1-3.036-5.213l-.344-4.812a25.6,25.6,0,0,1-10.312,9.28,31.019,31.019,0,0,1-13.863,3.094" fill="#fff"/>
  <path id="Path_4" data-name="Path 4" d="M379.605,107.181a33.333,33.333,0,0,1-13.061-2.463,29.46,29.46,0,0,1-16.327-16.556,31.6,31.6,0,0,1-2.234-11.8,33.428,33.428,0,0,1,2.177-12.088,29.493,29.493,0,0,1,6.3-9.967,30.072,30.072,0,0,1,10.025-6.817,33.381,33.381,0,0,1,13.234-2.521,32.553,32.553,0,0,1,13.118,2.521,30.213,30.213,0,0,1,9.854,6.759,28.788,28.788,0,0,1,6.187,9.853A32.847,32.847,0,0,1,411,75.788q0,1.491-.058,2.864a11.769,11.769,0,0,1-.287,2.292h-46.4a17.8,17.8,0,0,0,1.719,6.3,15.427,15.427,0,0,0,8.478,7.677,16.193,16.193,0,0,0,5.729,1.031,17.713,17.713,0,0,0,8.651-2.234,11.832,11.832,0,0,0,5.556-5.9l13.176,3.667a26.782,26.782,0,0,1-10.6,11.285,32.851,32.851,0,0,1-17.358,4.411m15.582-36.205A15.973,15.973,0,0,0,390.2,60.149a15.641,15.641,0,0,0-21.253.057,15.72,15.72,0,0,0-3.38,4.7,16.53,16.53,0,0,0-1.547,6.072Z" fill="#fff"/>
  <path id="Path_5" data-name="Path 5" d="M459.348,106.607a33.633,33.633,0,0,1-15.467-3.551,39.929,39.929,0,0,1-12.031-9.281A41.457,41.457,0,0,1,424.059,80.6a43.664,43.664,0,0,1-2.749-15.238,42.29,42.29,0,0,1,2.921-15.582,43.576,43.576,0,0,1,8.02-13.176A38.378,38.378,0,0,1,444.339,27.5a34.272,34.272,0,0,1,15.123-3.38,33.552,33.552,0,0,1,15.525,3.609,39,39,0,0,1,12.031,9.452,43.688,43.688,0,0,1,7.733,13.233,43.081,43.081,0,0,1-8.192,43.768,38.812,38.812,0,0,1-12.087,9.051,34.274,34.274,0,0,1-15.124,3.379M427.153,65.361A39.138,39.138,0,0,0,429.5,78.824a36.314,36.314,0,0,0,6.645,11.457A32.7,32.7,0,0,0,446.4,98.244a28.771,28.771,0,0,0,13.061,2.979A28.073,28.073,0,0,0,472.7,98.129a32.3,32.3,0,0,0,10.084-8.192A38.841,38.841,0,0,0,489.137,51.9a37.279,37.279,0,0,0-6.7-11.458,33.168,33.168,0,0,0-10.141-7.962A27.84,27.84,0,0,0,459.462,29.5a28.405,28.405,0,0,0-13.29,3.093,32.735,32.735,0,0,0-10.2,8.192,37.632,37.632,0,0,0-6.53,11.515,38.523,38.523,0,0,0-2.292,13.061" fill="#fff"/>
  <path id="Path_6" data-name="Path 6" d="M599.584,106.035h-5.728V72.808q0-11.341-3.495-16.727T579.648,50.7a18.089,18.089,0,0,0-6.989,1.375,21.171,21.171,0,0,0-6.072,3.838,24.732,24.732,0,0,0-4.755,5.843,30.739,30.739,0,0,0-3.151,7.505v36.778h-5.729V72.808q0-11.454-3.436-16.784T538.86,50.7a18.365,18.365,0,0,0-6.931,1.318,20.431,20.431,0,0,0-6.016,3.781,27.156,27.156,0,0,0-4.869,5.843,28.214,28.214,0,0,0-3.266,7.5v36.893H512.05V46.457h5.384V60.664a29.013,29.013,0,0,1,9.625-11.228,23.086,23.086,0,0,1,13.176-4.01q7.562,0,12.259,4.468a18.846,18.846,0,0,1,5.615,11.686q8.477-16.155,23.372-16.154,9.736,0,13.921,6.931t4.182,19.421Z" fill="#fff"/>
  <path id="Path_7" data-name="Path 7" d="M666.151,106.035h-5.728V72.808q0-11.569-3.266-16.841T646.789,50.7a21.511,21.511,0,0,0-7.505,1.375,25.4,25.4,0,0,0-6.932,3.9,28.449,28.449,0,0,0-5.614,5.9,24.3,24.3,0,0,0-3.552,7.275v36.893h-5.728V46.457h5.384V60.664a28,28,0,0,1,4.526-6.244,28.525,28.525,0,0,1,6.073-4.812,30.6,30.6,0,0,1,7.16-3.094,28.044,28.044,0,0,1,7.791-1.088q9.736,0,13.749,6.817t4.01,19.535Z" fill="#fff"/>
  <path id="Path_27" data-name="Path 27" d="M0,0H5.728V59.578H0Z" transform="translate(684.024 46.457)" fill="#fff"/>
  <path id="Path_8" data-name="Path 8" d="M73.019,87.283a22.853,22.853,0,0,1-11.436-3.065L43.631,102.17a47.8,47.8,0,0,0,59.186-.306L84.9,83.948a22.855,22.855,0,0,1-11.882,3.335" fill="#fff"/>
  <path id="Path_9" data-name="Path 9" d="M73.019,16.305A47.719,47.719,0,0,0,43.678,26.379L61.634,44.335a22.854,22.854,0,0,1,23.215.27l17.921-17.92a47.745,47.745,0,0,0-29.751-10.38" fill="#fff"/>
  <path id="Path_10" data-name="Path 10" d="M117.092,83.176a47.524,47.524,0,0,0-.012-37.8L146.308,0l-35.34,35c-.025-.033-.047-.068-.072-.1L92.944,52.856a22.876,22.876,0,0,1,.032,22.821v0l-.033,0,3.8,3.764,14.187,14.187c.02-.025.037-.054.057-.079l35.32,34.983Z" fill="#fff"/>
  <path id="Path_11" data-name="Path 11" d="M29.216,83.176a47.524,47.524,0,0,1,.012-37.8L0,0,35.34,35c.025-.033.047-.068.072-.1L53.364,52.856a22.876,22.876,0,0,0-.032,22.821v0l.033,0-3.8,3.764L35.377,93.633c-.02-.025-.037-.054-.057-.079L0,128.537Z" fill="#fff"/>
  <path id="Path_12" data-name="Path 12" d="M184.789,32.051a8.235,8.235,0,1,1-8.235-8.235,8.235,8.235,0,0,1,8.235,8.235" fill="#fff"/>
  <path id="Path_13" data-name="Path 13" d="M695.485,32.988a8.235,8.235,0,1,1-8.235-8.235,8.235,8.235,0,0,1,8.235,8.235" fill="#fff"/>
  <path id="Path_28" data-name="Path 28" d="M232.034,38.551H206.026v67.484h-15.7V38.551h.152V24.688h41.553Z" fill="#fff"/>
</svg>
