<svg xmlns="http://www.w3.org/2000/svg" xmlns:xlink="http://www.w3.org/1999/xlink" width="225.217" height="44.712" viewBox="0 0 225.217 44.712">
  <defs>
    <clipPath id="clip-path">
      <rect id="Rectangle_2" data-name="Rectangle 2" width="167.602" height="26.516" fill="#fff"/>
    </clipPath>
  </defs>
  <g id="Powered_by_-_4" data-name="Powered by - 4" transform="translate(-1037.772 -798.5)">
    <text id="Powered_by" data-name="Powered by" transform="translate(1095.386 806.962)" fill="#fff" font-size="8" font-family="Montserrat-MediumItalic, Montserrat" font-weight="500" font-style="italic"><tspan x="0" y="0">Powered by</tspan></text>
    <g id="Group_12" data-name="Group 12" transform="translate(1095.386 816.502)">
      <g id="Group_1" data-name="Group 1" transform="translate(0 0)" clip-path="url(#clip-path)">
        <path id="Path_2" data-name="Path 2" d="M242.254,49.678a9.629,9.629,0,0,0-3.972.857,5.009,5.009,0,0,0-2.512,2.458V64.539H230.89V45.451h4.481v4.08a8.7,8.7,0,0,1,1.2-1.767,9.245,9.245,0,0,1,1.493-1.366,6.912,6.912,0,0,1,1.621-.893,4.473,4.473,0,0,1,1.584-.309h.6a1.987,1.987,0,0,1,.382.036Z" transform="translate(-210.996 -38.399)" fill="#fff"/>
        <path id="Path_3" data-name="Path 3" d="M283.53,65.45a5.418,5.418,0,0,1-4.48-1.895,8.784,8.784,0,0,1-1.53-5.609V46H282.4V56.891q0,4.408,3.169,4.408a5.012,5.012,0,0,0,2.75-.856,6.153,6.153,0,0,0,2.167-2.6V46h4.882V59.477a1.715,1.715,0,0,0,.275,1.093,1.194,1.194,0,0,0,.893.367v4.153a10.4,10.4,0,0,1-1.22.184c-.328.024-.625.037-.893.037a3.515,3.515,0,0,1-2.131-.6,2.365,2.365,0,0,1-.965-1.653l-.109-1.53a8.139,8.139,0,0,1-3.279,2.951,9.862,9.862,0,0,1-4.408.984" transform="translate(-242.802 -38.946)" fill="#fff"/>
        <path id="Path_4" data-name="Path 4" d="M358.037,64.747a10.6,10.6,0,0,1-4.153-.783,9.367,9.367,0,0,1-5.19-5.264,10.047,10.047,0,0,1-.71-3.752,10.628,10.628,0,0,1,.692-3.843,9.377,9.377,0,0,1,2-3.169,9.56,9.56,0,0,1,3.188-2.167,10.613,10.613,0,0,1,4.208-.8,10.349,10.349,0,0,1,4.171.8,9.6,9.6,0,0,1,3.133,2.149,9.154,9.154,0,0,1,1.967,3.132,10.443,10.443,0,0,1,.674,3.716q0,.474-.018.911a3.742,3.742,0,0,1-.092.728H353.155a5.657,5.657,0,0,0,.551,2,4.9,4.9,0,0,0,2.7,2.441,5.148,5.148,0,0,0,1.821.328,5.632,5.632,0,0,0,2.755-.71,3.765,3.765,0,0,0,1.766-1.876l4.189,1.166a8.515,8.515,0,0,1-3.369,3.588,10.444,10.444,0,0,1-5.518,1.4M363,53.235a5.078,5.078,0,0,0-1.584-3.442,4.923,4.923,0,0,0-7.832,1.512,5.257,5.257,0,0,0-.492,1.929Z" transform="translate(-290.863 -38.243)" fill="#fff"/>
        <path id="Path_5" data-name="Path 5" d="M433.4,50.342a10.693,10.693,0,0,1-4.918-1.129,12.693,12.693,0,0,1-3.825-2.951,13.178,13.178,0,0,1-2.48-4.189,13.882,13.882,0,0,1-.874-4.844,13.443,13.443,0,0,1,.931-4.954,13.855,13.855,0,0,1,2.55-4.189,12.2,12.2,0,0,1,3.843-2.9,10.9,10.9,0,0,1,4.808-1.074,10.667,10.667,0,0,1,4.936,1.147,12.4,12.4,0,0,1,3.825,3,13.889,13.889,0,0,1,2.458,4.207,13.7,13.7,0,0,1-2.6,13.916,12.339,12.339,0,0,1-3.843,2.877,10.9,10.9,0,0,1-4.808,1.074M423.168,37.228a12.443,12.443,0,0,0,.747,4.28,11.545,11.545,0,0,0,2.112,3.642,10.4,10.4,0,0,0,3.264,2.533,9.147,9.147,0,0,0,4.153.947,8.925,8.925,0,0,0,4.207-.984,10.27,10.27,0,0,0,3.206-2.6,12.349,12.349,0,0,0,2.02-12.094,11.85,11.85,0,0,0-2.131-3.643,10.544,10.544,0,0,0-3.224-2.531,8.851,8.851,0,0,0-4.08-.947,9.031,9.031,0,0,0-4.224.984,10.408,10.408,0,0,0-3.242,2.6,11.966,11.966,0,0,0-2.076,3.661,12.247,12.247,0,0,0-.729,4.153" transform="translate(-340.877 -24.019)" fill="#fff"/>
        <path id="Path_6" data-name="Path 6" d="M539.88,64.694h-1.821V54.133a9.976,9.976,0,0,0-1.111-5.318,3.778,3.778,0,0,0-3.406-1.712,5.751,5.751,0,0,0-2.222.437,6.73,6.73,0,0,0-1.928,1.22,7.862,7.862,0,0,0-1.512,1.858,9.769,9.769,0,0,0-1,2.388V64.694h-1.824V54.133a10.1,10.1,0,0,0-1.093-5.336,3.746,3.746,0,0,0-3.388-1.694,5.838,5.838,0,0,0-2.2.419,6.5,6.5,0,0,0-1.913,1.2,8.635,8.635,0,0,0-1.548,1.858,8.971,8.971,0,0,0-1.039,2.388V64.694H512.05V45.752h1.712v4.515a9.223,9.223,0,0,1,3.06-3.57,7.34,7.34,0,0,1,4.189-1.275,5.418,5.418,0,0,1,3.9,1.421,5.992,5.992,0,0,1,1.789,3.716q2.7-5.136,7.431-5.136a4.761,4.761,0,0,1,4.426,2.2,11.994,11.994,0,0,1,1.33,6.175Z" transform="translate(-402.767 -38.554)" fill="#fff"/>
        <path id="Path_7" data-name="Path 7" d="M632.939,64.7h-1.821V54.134a10.522,10.522,0,0,0-1.039-5.354,3.592,3.592,0,0,0-3.3-1.676,6.838,6.838,0,0,0-2.388.437,8.072,8.072,0,0,0-2.2,1.239,9.039,9.039,0,0,0-1.785,1.876,7.725,7.725,0,0,0-1.13,2.313V64.7h-1.821V45.754h1.712v4.515a8.9,8.9,0,0,1,1.439-1.985,9.07,9.07,0,0,1,1.928-1.53,9.735,9.735,0,0,1,2.28-.984,8.917,8.917,0,0,1,2.48-.346,4.654,4.654,0,0,1,4.371,2.167,12.379,12.379,0,0,1,1.275,6.211Z" transform="translate(-474.663 -38.555)" fill="#fff"/>
        <rect id="Rectangle_1" data-name="Rectangle 1" width="1.821" height="18.942" transform="translate(163.958 7.199)" fill="#fff"/>
        <path id="Path_12" data-name="Path 12" d="M173.555,26.434a2.618,2.618,0,1,1-2.618-2.618,2.618,2.618,0,0,1,2.618,2.618" transform="translate(-168.319 -23.816)" fill="#fff"/>
        <path id="Path_13" data-name="Path 13" d="M684.251,27.367a2.618,2.618,0,1,1-2.618-2.618,2.618,2.618,0,0,1,2.618,2.618" transform="translate(-516.649 -24.454)" fill="#fff"/>
        <path id="Path_1" data-name="Path 1" d="M203.589,29.1h-8.265V50.551h-4.99V29.1h.049V24.688h13.211Z" transform="translate(-183.333 -24.411)" fill="#fff"/>
      </g>
    </g>
    <g id="Group_1-2" data-name="Group 1" transform="translate(1037.772 798.5)">
      <path id="Path_8" data-name="Path 8" d="M53.854,85.105a7.951,7.951,0,0,1-3.979-1.067l-6.244,6.245a16.629,16.629,0,0,0,20.588-.107l-6.23-6.23a7.95,7.95,0,0,1-4.136,1.157" transform="translate(-28.454 -54.746)" fill="#fff"/>
      <path id="Path_9" data-name="Path 9" d="M53.884,16.3a16.6,16.6,0,0,0-10.206,3.5l6.246,6.246A7.95,7.95,0,0,1,58,26.149l6.23-6.23a16.608,16.608,0,0,0-10.349-3.611" transform="translate(-28.485 -10.633)" fill="#fff"/>
      <path id="Path_10" data-name="Path 10" d="M101.34,28.937a16.532,16.532,0,0,0,0-13.147L111.507,0,99.214,12.177l-.025-.035-6.245,6.246a7.958,7.958,0,0,1,.011,7.938h-.011l1.322,1.306L99.2,32.567l.02-.027,12.285,12.173Z" transform="translate(-60.612)" fill="#fff"/>
      <path id="Path_11" data-name="Path 11" d="M10.163,28.937a16.532,16.532,0,0,1,0-13.147L0,0,12.293,12.177l.025-.035,6.245,6.246a7.958,7.958,0,0,0-.011,7.938h.011l-1.322,1.306-4.935,4.935-.02-.027L0,44.712Z" fill="#fff"/>
    </g>
  </g>
</svg>
