<svg id="Icon-Trueomni-Dark" xmlns="http://www.w3.org/2000/svg" width="1813.252" height="1592.989" viewBox="0 0 1813.252 1592.989">
  <path id="Path_8" data-name="Path 8" d="M407.835,125.187a283.274,283.274,0,0,1-141.762-38L43.631,309.687c215.98,168.438,519.266,166.869,733.491-3.795L555.177,83.948a283.227,283.227,0,0,1-147.343,41.238" transform="translate(497.09 956.435)" fill="#171717"/>
  <path id="Path_9" data-name="Path 9" d="M407.309,16.305A591.375,591.375,0,0,0,43.678,141.167L266.2,363.684a283.23,283.23,0,0,1,287.7,3.329L775.844,145.069A591.7,591.7,0,0,0,407.13,16.412" transform="translate(497.616 185.772)" fill="#171717"/>
  <path id="Path_10" data-name="Path 10" d="M392.068,1030.968a588.978,588.978,0,0,0,0-468.41L754.3,0,316.32,433.83l-.895-1.253L92.944,655.094a283.516,283.516,0,0,1,.394,282.8h-.394l47.11,46.537,175.838,175.837.716-.966,437.7,433.687Z" transform="translate(1058.948)" fill="#171717"/>
  <path id="Path_11" data-name="Path 11" d="M362.092,1030.968a588.976,588.976,0,0,1,0-468.41L0,0,437.983,433.83l.895-1.253L661.359,655.094a283.516,283.516,0,0,0-.394,282.8h.394L614.25,984.432,438.412,1160.269l-.716-.966L0,1592.989Z" fill="#171717"/>
</svg>
